<svg xmlns="http://www.w3.org/2000/svg" viewBox="0 0 32 32">
  <defs>
    <!-- Radial gradient matching PokerChipBase: chip→ring→chip→ring -->
    <radialGradient id="body" cx="16" cy="16" r="15" gradientUnits="userSpaceOnUse">
      <stop offset="58%" stop-color="#FA9108"/>
      <stop offset="58%" stop-color="#996600"/>
      <stop offset="66%" stop-color="#996600"/>
      <stop offset="66%" stop-color="#FA9108"/>
      <stop offset="88%" stop-color="#FA9108"/>
      <stop offset="88%" stop-color="#996600"/>
    </radialGradient>
    <radialGradient id="gloss" cx="11" cy="10" r="10" gradientUnits="userSpaceOnUse">
      <stop offset="0%" stop-color="white" stop-opacity="0.2"/>
      <stop offset="100%" stop-color="white" stop-opacity="0"/>
    </radialGradient>
    <clipPath id="chip">
      <circle cx="16" cy="16" r="15"/>
    </clipPath>
  </defs>

  <!-- Drop shadow -->
  <circle cx="16" cy="17" r="15" fill="black" fill-opacity="0.25"/>

  <!-- Chip body -->
  <circle cx="16" cy="16" r="15" fill="url(#body)"/>

  <!--
    Notches: each rect is defined at the N position (x=14, y=1.5, w=4, h=5.5),
    then rotated around the chip center (16,16) to reach its final position.
    This mirrors PokerChipBase's absolute-position + rotate(angle) pattern.
    The inner circle drawn below covers their inward ends.
    Cardinals (N/E/S/W) = #111111, diagonals (NE/SE/SW/NW) = #FFFFFF.
  -->
  <rect x="14" y="1.5" width="4" height="5.5" fill="#111111" clip-path="url(#chip)" transform="rotate(0   16 16)"/>
  <rect x="14" y="1.5" width="4" height="5.5" fill="#FFFFFF" clip-path="url(#chip)" transform="rotate(45  16 16)"/>
  <rect x="14" y="1.5" width="4" height="5.5" fill="#111111" clip-path="url(#chip)" transform="rotate(90  16 16)"/>
  <rect x="14" y="1.5" width="4" height="5.5" fill="#FFFFFF" clip-path="url(#chip)" transform="rotate(135 16 16)"/>
  <rect x="14" y="1.5" width="4" height="5.5" fill="#111111" clip-path="url(#chip)" transform="rotate(180 16 16)"/>
  <rect x="14" y="1.5" width="4" height="5.5" fill="#FFFFFF" clip-path="url(#chip)" transform="rotate(225 16 16)"/>
  <rect x="14" y="1.5" width="4" height="5.5" fill="#111111" clip-path="url(#chip)" transform="rotate(270 16 16)"/>
  <rect x="14" y="1.5" width="4" height="5.5" fill="#FFFFFF" clip-path="url(#chip)" transform="rotate(315 16 16)"/>

  <!-- Inner circle: drawn on top to cover inward ends of notches -->
  <circle cx="16" cy="16" r="9.5" fill="#FA9108" stroke="#996600" stroke-width="1.5"/>

  <!-- Gloss overlay -->
  <circle cx="16" cy="16" r="15" fill="url(#gloss)"/>
</svg>
